<?xml version="1.0" standalone="no"?>
<!DOCTYPE svg PUBLIC "-//W3C//DTD SVG 20010904//EN"
 "http://www.w3.org/TR/2001/REC-SVG-20010904/DTD/svg10.dtd">
<svg version="1.0" xmlns="http://www.w3.org/2000/svg"
 width="512.000000pt" height="512.000000pt" viewBox="0 0 512.000000 512.000000"
 preserveAspectRatio="xMidYMid meet">
<metadata>
Created by potrace 1.16, written by Peter Selinger 2001-2019
</metadata>
<g transform="translate(0.000000,512.000000) scale(0.100000,-0.100000)"
fill="#000000" stroke="none">
<path d="M257 5029 c-93 -22 -180 -93 -227 -185 l-25 -49 -3 -1707 -2 -1707
21 -58 c29 -79 112 -161 194 -194 l60 -24 882 -3 c684 -2 883 -5 883 -15 0 -7
-6 -48 -14 -92 -37 -212 -136 -341 -291 -380 -16 -4 -104 -10 -195 -14 -181
-7 -210 -15 -270 -74 -18 -18 -44 -56 -58 -86 -59 -129 9 -290 145 -341 53
-20 79 -20 1203 -20 1124 0 1150 0 1203 20 95 36 156 119 165 226 4 51 0 71
-20 115 -14 30 -40 68 -58 86 -60 59 -89 67 -270 74 -91 4 -178 10 -195 14
-155 39 -254 168 -291 380 -8 44 -14 85 -14 92 0 10 199 13 883 15 l882 3 60
24 c82 33 165 115 194 194 l21 58 -2 1707 -3 1707 -25 49 c-35 69 -100 133
-168 164 l-57 27 -2285 2 c-1311 0 -2301 -3 -2323 -8z m4589 -188 c23 -10 52
-34 65 -52 l24 -34 3 -1392 2 -1393 -80 0 -80 0 0 1338 c-1 1444 3 1360 -54
1382 -38 14 -4294 14 -4332 0 -57 -22 -53 62 -54 -1382 l0 -1338 -80 0 -80 0
2 1393 3 1392 24 34 c13 18 42 42 65 52 40 18 118 19 2286 19 2168 0 2246 -1
2286 -19z m-246 -1596 l0 -1275 -2040 0 -2040 0 0 1275 0 1275 2040 0 2040 0
0 -1275z m340 -1646 c0 -220 -8 -247 -84 -290 l-41 -24 -2255 0 -2255 0 -41
24 c-76 43 -84 70 -84 290 l0 191 2380 0 2380 0 0 -191z m-2032 -588 c19 -145
73 -291 139 -378 l24 -33 -511 0 -511 0 24 33 c66 87 120 233 139 378 l12 89
336 0 336 0 12 -89z m803 -604 c20 -15 39 -51 39 -72 0 -9 -13 -30 -29 -46
l-29 -29 -1132 0 -1132 0 -29 29 c-16 16 -29 37 -29 46 0 21 19 57 39 72 23
18 2279 18 2302 0z"/>
<path d="M1165 4351 c-11 -5 -29 -19 -40 -31 -20 -22 -20 -36 -20 -865 l0
-843 24 -26 24 -26 1002 0 1002 0 44 -146 c47 -158 63 -189 106 -197 42 -8 73
9 140 76 l63 61 113 -112 c158 -156 146 -157 336 33 140 138 146 146 146 185
0 38 -7 46 -113 153 l-112 112 56 55 c63 62 85 102 77 143 -8 43 -39 59 -197
106 l-146 44 0 617 0 617 -26 24 -26 24 -1216 2 c-669 1 -1226 -2 -1237 -6z
m2325 -296 l0 -125 -1105 0 -1105 0 0 125 0 125 1105 0 1105 0 0 -125z m0
-615 c0 -170 -2 -310 -5 -310 -3 0 -96 27 -207 60 -206 62 -234 65 -270 33
-35 -32 -32 -65 31 -272 34 -109 61 -202 61 -205 0 -3 -409 -6 -910 -6 l-910
0 0 505 0 505 1105 0 1105 0 0 -310z m-75 -480 c94 -28 207 -63 253 -76 l83
-26 -40 -44 c-36 -38 -41 -50 -41 -89 0 -45 2 -49 107 -156 l107 -110 -54 -54
-54 -54 -107 104 c-107 105 -108 105 -157 105 -43 0 -55 -5 -95 -40 l-46 -41
-25 83 c-13 46 -48 160 -76 253 -28 94 -53 178 -56 188 -5 15 -2 18 13 13 10
-3 95 -28 188 -56z"/>
<path d="M1501 3409 c-48 -19 -50 -30 -51 -252 0 -208 0 -208 25 -232 l24 -25
379 0 c366 0 379 1 400 20 12 11 24 31 28 43 3 13 4 110 2 215 -3 184 -4 192
-26 214 l-23 23 -367 2 c-222 1 -377 -2 -391 -8z m629 -249 l0 -80 -250 0
-250 0 0 80 0 80 250 0 250 0 0 -80z"/>
<path d="M2275 1621 c-60 -25 -77 -101 -34 -147 l22 -24 297 0 297 0 22 24
c33 36 32 89 -2 124 l-27 27 -278 2 c-152 1 -286 -2 -297 -6z"/>
</g>
</svg>
